<svg xmlns="http://www.w3.org/2000/svg" viewBox="0 0 1109.49 513.51"><defs><style>.cls-1{fill:#6a6869;}.cls-2{fill:#fff;}</style></defs><title>douse</title><g id="Layer_2" data-name="Layer 2"><g id="Layer_2-2" data-name="Layer 2"><path class="cls-1" d="M625.76,298.58l.46-14.07-3.85-4.89L619.26,278h-8c-7.7,4.59-9.92,9.38-12,17.63v28.3c3,26.22,11.55,43.85,17.78,59.26l2.49,1.33c96.47-45,99.8-99.49,162.91-95.07,40.82.7,115,21.88,161.56,29.74a207.63,207.63,0,0,0,31.33,3.26l38.45.33c28.49-2.7,46.23-13,58.55-27.11,10.67-8.45,11-23.56,14.89-35,3.45-10.22,14.22-9.11,20.67-.78,0,0,3.11,8.78.67,15.22-9.62,21.21-23.41,37.88-42,49.34-16.45,10.33-32.18,13.73-50.23,15.77l-38.44.23c-56.11-4.67-120.56-29.34-181.45-36.89-71.11-9.78-69.77,47.33-170.22,94.22-5.92,5.26,13.63,23.33,8.45,73-7.41,30.22-35.26,44.15-68.89,42.67-46.82-8.74-47.41-52-36.15-68.89,15.56-26.67,40.59-36.3,69.18-51.11-5.95-21.87-12.09-41.12-18.51-57.19-30.64,50.24-53.63,87-80.6,104.74-29.57,20.13-45.26,5.17-53.63-28.29-2.45-10.47-3.41-34.26-3.85-62.67-21.63,43.11-55.55,41.63-58.37-1.48-1.18-23.56,2.22-44.3,11.85-68-33.33,16.89-52.14,23-81.77,20-70.8-11.82-149.34-28.89-179.49-31.41-53.7-8.44-101.7,15.11-108.22,48.74C24.44,344.66,2.52,344.36,0,325.77c2.67-29.56,35.33-54,45.11-59.11,17.66-9.83,37.88-14.33,59.78-15.34a288.47,288.47,0,0,1,74,7.78L256,277.55c4.07,2.42,53.63,9.59,53.33,8.89,26.31,1.21,46.42-.93,59.11-7.12C404,268,430,231.32,452.89,256.44,487.51,106.16,527.79,1.61,570.67.36c23.19-3.43,35.55,17.78,31.11,52.45C583.7,139,525.63,217.84,467,312.36c-3.68,61.34-5.63,103.11,5.34,120.89,15.49,4.22,34.24-15.09,54.22-43.26,21.2-31.06,40-61.82,55.11-92.15,1.83-19.29,10.51-31.8,27.7-35.85,16.16-1.4,27.17,5.64,32.23,22.45v13.11c-1.71,10.07-16.52,8.15-15.78.44"/><path id="open" class="cls-2" d="M447.7,277.7c-26.59-57.49-57.48,84.29-37.33,86.07C422.89,364.47,451.33,288.21,447.7,277.7Z"/><path id="open-2" data-name="open" class="cls-2" d="M475.56,264c22.66-107,49.33-217.55,89.33-246C642.67-7.79,500.13,253.26,475.56,264Z"/><path id="open-3" data-name="open" class="cls-2" d="M604.44,409.4c16.6,43.78,12.38,83-23.11,87.7C517.93,497.25,526.22,434.29,604.44,409.4Z"/></g></g></svg>